<svg xmlns="http://www.w3.org/2000/svg" width="1200" height="900" viewBox="0 0 1200 900">
<defs><filter id="s"><feDropShadow dx="0" dy="10" stdDeviation="18" flood-color="#4d3040" flood-opacity=".10"/></filter></defs>
<rect width="1200" height="900" fill="#fffaf7"/><circle cx="1080" cy="60" r="190" fill="#f8edf2" opacity=".7"/>
<rect x="56" y="50" width="1088" height="800" rx="36" fill="#ffffff" stroke="#eadce4" stroke-width="2" filter="url(#s)"/>
<rect x="90" y="90" width="8" height="74" rx="4" fill="#7f9fc3"/>
<text x="118" y="119" font-family="Inter,Arial,sans-serif" font-size="25" font-weight="800" fill="#7c4665">Hands · Pinching Fabric</text>
<text x="118" y="154" font-family="Inter,Arial,sans-serif" font-size="16" fill="#8b7482">Use two opposing shapes: thumb pad vs. index finger.</text>
<path d="M360 340 L520 360 L560 500 L470 585 L335 545 L300 430 Z" fill="#f8edf2" stroke="#4b3a46" stroke-width="9" stroke-linejoin="round"/><path d="M470 365 Q560 300 650 320" fill="none" stroke="#4b3a46" stroke-width="13" stroke-linecap="round" stroke-linejoin="round"/><path d="M445 410 Q515 365 575 390" fill="none" stroke="#4b3a46" stroke-width="13" stroke-linecap="round" stroke-linejoin="round"/><path d="M420 455 Q480 430 535 450" fill="none" stroke="#4b3a46" stroke-width="13" stroke-linecap="round" stroke-linejoin="round"/><path d="M350 500 Q280 470 275 420 Q285 365 330 370" fill="none" stroke="#4b3a46" stroke-width="15" stroke-linecap="round"/><path d="M650 320 Q700 355 745 410 Q680 470 610 505" fill="none" stroke="#7f9fc3" stroke-width="5" stroke-dasharray="10 10" opacity=".8"/><circle cx="820" cy="305" r="110" fill="#f8edf2"/><text x="740" y="300" font-family="Inter,Arial" font-size="18" font-weight="800" fill="#7c4665">BUILD ORDER</text><text x="738" y="336" font-family="Inter,Arial" font-size="17" fill="#8b7482">1 palm mass</text><text x="738" y="368" font-family="Inter,Arial" font-size="17" fill="#8b7482">2 knuckle arc</text><text x="738" y="400" font-family="Inter,Arial" font-size="17" fill="#8b7482">3 finger groups</text>
<text x="100" y="815" font-family="Inter,Arial,sans-serif" font-size="14" fill="#9b8793">Life RPG · Drawing Studio Practice Reference</text>
</svg>