<svg xmlns="http://www.w3.org/2000/svg" width="1200" height="900" viewBox="0 0 1200 900">
<defs>
  <filter id="shadow" x="-20%" y="-20%" width="140%" height="140%"><feDropShadow dx="0" dy="10" stdDeviation="18" flood-color="#4d3040" flood-opacity="0.10"/></filter>
  <linearGradient id="paper" x1="0" y1="0" x2="0" y2="1"><stop offset="0" stop-color="#ffffff"/><stop offset="1" stop-color="#fff8fb"/></linearGradient>
  
</defs>
<rect width="1200" height="900" fill="#fffaf7"/>
<circle cx="1050" cy="80" r="180" fill="#f7e8ef" opacity=".7"/>
<rect x="56" y="50" width="1088" height="800" rx="36" fill="url(#paper)" stroke="#eadce4" stroke-width="2" filter="url(#shadow)"/>
<text x="100" y="120" font-family="Inter,Arial,sans-serif" font-size="25" font-weight="800" fill="#7c4665">Faces &amp; Hair · 3/4 Head Turn</text>
<text x="100" y="156" font-family="Inter,Arial,sans-serif" font-size="16" fill="#8b7482">A clean anime-oriented head construction with wrap lines and skull volume.</text>

<g transform="translate(120 30)">
 <ellipse cx="475" cy="430" rx="210" ry="250" fill="#f9edf2" stroke="#4b3a46" stroke-width="10"/>
 <path d="M420 185 Q600 235 640 430 Q650 585 520 650 Q390 620 310 520" fill="none" stroke="#4b3a46" stroke-width="8"/>
 <path d="M352 430 Q485 390 625 422" fill="none" stroke="#87a6c9" stroke-width="5"/>
 <path d="M500 208 Q528 420 490 650" fill="none" stroke="#87a6c9" stroke-width="5"/>
 <path d="M325 375 Q455 300 608 350" fill="none" stroke="#d8759e" stroke-width="4" stroke-dasharray="14 11"/>
 <path d="M375 475 Q430 440 475 467" fill="none" stroke="#4b3a46" stroke-width="6"/>
 <path d="M540 455 Q575 430 610 448" fill="none" stroke="#4b3a46" stroke-width="6"/>
 <path d="M520 493 L548 535 L515 548" fill="none" stroke="#4b3a46" stroke-width="5"/>
 <path d="M446 585 Q515 620 575 585" fill="none" stroke="#4b3a46" stroke-width="5"/>
 <path d="M318 320 C390 170 590 150 655 320" fill="none" stroke="#7c4665" stroke-width="15" stroke-linecap="round" opacity=".7"/>
 <path d="M655 320 C700 440 670 555 604 630" fill="none" stroke="#7c4665" stroke-width="15" stroke-linecap="round" opacity=".7"/>
 <text x="760" y="330" font-family="Inter,Arial" font-size="18" font-weight="700" fill="#7c4665">Wrap lines around the skull</text>
 <text x="760" y="365" font-family="Inter,Arial" font-size="16" fill="#7f6876">Features follow the turn.</text>
 <text x="760" y="410" font-family="Inter,Arial" font-size="16" fill="#7f6876">Keep the cranium volume</text>
 <text x="760" y="437" font-family="Inter,Arial" font-size="16" fill="#7f6876">behind the face.</text>
</g>

<text x="100" y="815" font-family="Inter,Arial,sans-serif" font-size="14" fill="#9b8793">Life RPG · Drawing Studio Practice Reference</text>
</svg>