<svg xmlns="http://www.w3.org/2000/svg" width="1200" height="900" viewBox="0 0 1200 900">
<defs><filter id="s"><feDropShadow dx="0" dy="10" stdDeviation="18" flood-color="#4d3040" flood-opacity=".10"/></filter></defs>
<rect width="1200" height="900" fill="#fffaf7"/><circle cx="1080" cy="60" r="190" fill="#f8edf2" opacity=".7"/>
<rect x="56" y="50" width="1088" height="800" rx="36" fill="#ffffff" stroke="#eadce4" stroke-width="2" filter="url(#s)"/>
<rect x="90" y="90" width="8" height="74" rx="4" fill="#c59a4a"/>
<text x="118" y="119" font-family="Inter,Arial,sans-serif" font-size="25" font-weight="800" fill="#7c4665">Story Interaction · Shared Weight</text>
<text x="118" y="154" font-family="Inter,Arial,sans-serif" font-size="16" fill="#8b7482">Both bodies should visibly respond to the same object weight.</text>
<rect x="145" y="205" width="910" height="500" rx="24" fill="#fffaf7" stroke="#eadce4" stroke-width="3"/><circle cx="370" cy="330" r="34" fill="#fff" stroke="#4b3a46" stroke-width="7"/><ellipse cx="385" cy="435" rx="48" ry="70" fill="#f8edf2" stroke="#4b3a46" stroke-width="8"/><ellipse cx="400" cy="545" rx="42" ry="32" fill="#f8edf2" stroke="#4b3a46" stroke-width="8"/><path d="M350 430 L470 500" stroke="#4b3a46" stroke-width="10" fill="none" stroke-linecap="round"/><path d="M420 430 L520 500" stroke="#4b3a46" stroke-width="10" fill="none" stroke-linecap="round"/><path d="M380 570 L330 665" stroke="#4b3a46" stroke-width="10" fill="none" stroke-linecap="round"/><path d="M420 570 L470 665" stroke="#4b3a46" stroke-width="10" fill="none" stroke-linecap="round"/><circle cx="810" cy="330" r="34" fill="#fff" stroke="#4b3a46" stroke-width="7"/><ellipse cx="795" cy="435" rx="48" ry="70" fill="#f8edf2" stroke="#4b3a46" stroke-width="8"/><ellipse cx="780" cy="545" rx="42" ry="32" fill="#f8edf2" stroke="#4b3a46" stroke-width="8"/><path d="M760 430 L660 500" stroke="#4b3a46" stroke-width="10" fill="none" stroke-linecap="round"/><path d="M830 430 L710 500" stroke="#4b3a46" stroke-width="10" fill="none" stroke-linecap="round"/><path d="M770 570 L725 665" stroke="#4b3a46" stroke-width="10" fill="none" stroke-linecap="round"/><path d="M810 570 L860 665" stroke="#4b3a46" stroke-width="10" fill="none" stroke-linecap="round"/><path d="M500 470 L700 470 L735 555 L465 555 Z" stroke="#4b3a46" stroke-width="7" fill="none" stroke-linejoin="round"/><path d="M600 555 L600 640" stroke="#d8759e" stroke-width="6" fill="none" stroke-linecap="round" opacity=".7"/><text x="615" y="625" font-family="Inter,Arial" font-size="16" font-weight="800" fill="#7c4665">weight</text>
<text x="100" y="815" font-family="Inter,Arial,sans-serif" font-size="14" fill="#9b8793">Life RPG · Drawing Studio Practice Reference</text>
</svg>